<svg width="45" height="61" viewBox="0 0 45 61" fill="none" xmlns="http://www.w3.org/2000/svg">
<path d="M36.416 53.0157C36.8722 53.0884 37.338 52.9768 37.7116 52.7027C38.0804 52.4358 38.3375 52.0234 38.4055 51.5648L38.8155 48.8403C38.898 48.292 39.2401 47.8262 39.735 47.5763L42.2024 46.3438C42.6196 46.1327 42.9326 45.7712 43.0733 45.3321C43.2189 44.8881 43.1728 44.4126 42.9642 44.0002L41.6929 41.5425C41.443 41.0621 41.443 40.4775 41.6929 39.9922L42.9642 37.537C43.1728 37.1246 43.2165 36.649 43.0733 36.2051C42.9302 35.7635 42.6172 35.4044 42.2024 35.1934L39.735 33.9609C39.2401 33.711 38.898 33.2452 38.8155 32.6969L38.4055 29.9723C38.3375 29.5138 38.0804 29.1038 37.7116 28.8369C37.338 28.5603 36.8722 28.4487 36.416 28.5239L33.6867 28.9801C33.1456 29.0698 32.5973 28.8903 32.2092 28.4997L30.2707 26.5297C29.9432 26.2021 29.504 26.0178 29.0382 26.0178C28.5797 26.0178 28.1308 26.2046 27.8057 26.5297L25.8673 28.4997C25.4815 28.8927 24.9308 29.0698 24.3898 28.9801L21.6652 28.5312C21.2091 28.456 20.7433 28.5676 20.3673 28.8442C19.9961 29.1111 19.7413 29.5211 19.6734 29.9796L19.2658 32.7042C19.1809 33.2525 18.8412 33.7183 18.3463 33.9682L15.8765 35.2006C15.4665 35.4117 15.1487 35.7708 15.0079 36.2123C14.8648 36.6563 14.906 37.1318 15.1147 37.5443L16.386 39.9995C16.6383 40.4823 16.6383 41.067 16.386 41.5498L15.1147 44.0075C14.906 44.4199 14.8648 44.8954 15.0079 45.3394C15.1511 45.7785 15.4641 46.14 15.8765 46.3511L18.3463 47.5836C18.8412 47.8335 19.1809 48.2993 19.2658 48.8476L19.6734 51.5721C19.7413 52.0282 19.9961 52.4407 20.3673 52.71C20.7409 52.9841 21.2067 53.0957 21.6652 53.0229L24.3898 52.5741C24.9308 52.4795 25.4815 52.6614 25.8673 53.052L27.8057 55.0172C28.1333 55.352 28.5772 55.5364 29.0382 55.5364C29.5016 55.5364 29.9456 55.352 30.2707 55.0172L32.2092 53.052C32.5973 52.6614 33.1481 52.4795 33.6867 52.5741L36.416 53.0157ZM29.0358 51.0262C23.2374 51.0262 18.5234 46.3123 18.5234 40.5163C18.5234 34.7203 23.2398 30.0015 29.0358 30.0015C34.8342 30.0015 39.5482 34.7227 39.5482 40.5163C39.5482 46.3099 34.8366 51.0262 29.0358 51.0262Z" fill="#030104"/>
<path d="M29.0383 31.5178C24.0865 31.5178 20.0543 35.5451 20.0543 40.4993C20.0543 45.4534 24.089 49.4808 29.0383 49.4808C33.9948 49.4808 38.0222 45.4534 38.0222 40.4993C38.0222 35.5451 33.9948 31.5178 29.0383 31.5178Z" fill="#030104"/>
<path d="M44.694 54.9832L39.8054 50.0922L39.5579 51.7419C39.4415 52.5013 39.0193 53.2025 38.3958 53.6513C37.7772 54.1025 37.0032 54.2942 36.2317 54.168L33.4999 53.7216C33.2743 53.7071 33.1384 53.7702 33.0389 53.8721L32.5731 54.3403L38.9587 60.7234C39.2061 60.9709 39.5628 61.0582 39.8927 60.9588C40.2227 60.8544 40.4653 60.5803 40.5332 60.2382L41.1082 57.1401L44.2161 56.5578C44.5557 56.4947 44.8299 56.2497 44.9294 55.9173C45.0313 55.5849 44.9391 55.2234 44.694 54.9832Z" fill="#030104"/>
<path d="M24.6639 53.7095L21.8496 54.168C21.0611 54.2894 20.2969 54.1001 19.6758 53.644C19.0571 53.1976 18.635 52.4989 18.5185 51.7346L18.2711 50.0922L13.3849 54.9832C13.1423 55.2258 13.0525 55.5849 13.152 55.9149C13.2563 56.2472 13.5329 56.4874 13.8677 56.5554L16.9731 57.1352L17.5554 60.2382C17.6185 60.5803 17.8635 60.8544 18.1934 60.9588C18.521 61.0582 18.88 60.9709 19.1227 60.7259L25.5058 54.3403L25.04 53.8696C24.9381 53.7653 24.8022 53.7095 24.6639 53.7095Z" fill="#030104"/>
<path d="M31.8235 10.231H8.93299C8.10811 10.231 7.44092 10.8981 7.44092 11.723C7.4385 12.5528 8.10568 13.2175 8.93299 13.2175H31.8235C32.6459 13.2175 33.3155 12.5528 33.3155 11.7279C33.3155 10.903 32.6435 10.231 31.8235 10.231Z" fill="#030104"/>
<path d="M31.8235 17.8829H8.93299C8.10811 17.8829 7.44092 18.5501 7.44092 19.3701C7.4385 20.195 8.10568 20.8646 8.93299 20.8646H31.8235C32.6459 20.8646 33.3155 20.1999 33.3155 19.3726C33.3155 18.5501 32.6435 17.8829 31.8235 17.8829Z" fill="#030104"/>
<path d="M15.9372 49.0465L14.8091 48.4836C14.5203 48.3381 14.2583 48.1513 14.0157 47.9426H4.37915C3.71925 47.9426 3.18307 47.404 3.18307 46.749V4.37672C3.18307 3.71439 3.71925 3.17822 4.37915 3.17822H36.4476C37.1051 3.17822 37.6437 3.71439 37.6437 4.37672V26.2288C38.1775 26.355 38.687 26.5879 39.1334 26.9203C40.0068 27.5438 40.6109 28.5409 40.7734 29.6278L40.8219 4.37915C40.8268 1.96516 38.8616 0 36.4476 0H4.37915C1.96516 0 0 1.96759 0 4.37915V46.7538C0 49.1702 1.96758 51.1354 4.37915 51.1354H13.8532L15.9372 49.0465Z" fill="#030104"/>
</svg>
