<svg width="44" height="56" viewBox="0 0 44 56" fill="none" xmlns="http://www.w3.org/2000/svg">
<path d="M30.2531 0H0V56H43.8667V13.6136L30.2531 0ZM30.8 3.1864L40.6803 13.0667H30.8V3.1864ZM1.86667 54.1333V1.86667H28.9333V14.9333H42V54.1333H1.86667Z" fill="black"/>
<path d="M26.1334 34.5334C26.6486 34.5334 27.0667 34.1162 27.0667 33.6C27.0667 33.0839 26.6486 32.6667 26.1334 32.6667H10.2667C9.75151 32.6667 9.33337 33.0839 9.33337 33.6C9.33337 34.1162 9.75151 34.5334 10.2667 34.5334H26.1334Z" fill="black"/>
<path d="M35.4667 28H28.9333C28.4181 28 28 28.4172 28 28.9333C28 29.4495 28.4181 29.8667 28.9333 29.8667H35.4667C35.9819 29.8667 36.4 29.4495 36.4 28.9333C36.4 28.4172 35.9819 28 35.4667 28Z" fill="black"/>
<path d="M14 28.9333C14 29.4495 14.4181 29.8667 14.9333 29.8667H24.2667C24.7819 29.8667 25.2 29.4495 25.2 28.9333C25.2 28.4172 24.7819 28 24.2667 28H14.9333C14.4181 28 14 28.4172 14 28.9333Z" fill="black"/>
<path d="M9.60404 28.2706C9.43604 28.447 9.33337 28.6897 9.33337 28.9333C9.33337 29.176 9.43604 29.4186 9.60404 29.5866C9.77204 29.763 10.0147 29.8666 10.2667 29.8666C10.5187 29.8666 10.752 29.764 10.9294 29.596C11.0974 29.4186 11.2 29.176 11.2 28.9333C11.2 28.6897 11.0974 28.447 10.9294 28.2706C10.584 27.9253 9.94004 27.9346 9.60404 28.2706Z" fill="black"/>
<path d="M30.1374 32.9373C29.9694 33.1137 29.8667 33.3471 29.8667 33.6C29.8667 33.852 29.96 34.0853 30.1374 34.2627C30.3147 34.4307 30.5574 34.5333 30.8 34.5333C31.0427 34.5333 31.2854 34.4307 31.4627 34.2627C31.64 34.0853 31.7334 33.852 31.7334 33.6C31.7334 33.3564 31.6307 33.1137 31.4627 32.9373C31.108 32.592 30.492 32.592 30.1374 32.9373Z" fill="black"/>
<path d="M34.804 32.9373C34.636 33.1137 34.5333 33.3471 34.5333 33.6C34.5333 33.852 34.6267 34.0853 34.804 34.2627C34.9813 34.4307 35.224 34.5333 35.4667 34.5333C35.7093 34.5333 35.952 34.4307 36.1293 34.2533C36.3067 34.076 36.4 33.8427 36.4 33.6C36.4 33.3564 36.2973 33.1137 36.1293 32.9373C35.7747 32.592 35.1587 32.592 34.804 32.9373Z" fill="black"/>
<path d="M15.4233 37.4883C13.3793 38.5523 12.6915 40.5879 12.4404 42.6981C12.054 42.3743 11.6676 42.0513 11.2812 41.7275C10.3665 40.9612 9.03934 42.2744 9.96147 43.0481C10.8341 43.7789 11.7077 44.5107 12.5804 45.2424C13.1945 45.7567 14.1447 45.4319 14.1736 44.5825C14.2417 42.5609 14.3369 40.1567 16.3651 39.1011C17.4319 38.5457 16.4883 36.9339 15.4233 37.4883Z" fill="black"/>
<path d="M27.958 41.1675C26.5972 41.0816 24.6055 43.1788 23.5564 41.3103C23.3137 40.8772 22.7043 40.7148 22.2796 40.9752C20.958 41.7863 19.2304 42.953 17.8407 41.4419C17.0259 40.5562 15.708 41.8787 16.5209 42.7616C18.2663 44.6591 20.5119 44.0823 22.4933 43.0071C22.9395 43.5064 23.4929 43.8714 24.2079 44.016C24.9471 44.1654 27.9645 42.9511 28.1279 43.1751C28.8297 44.1355 30.45 43.205 29.7397 42.2334C29.2572 41.5735 28.8129 41.2216 27.958 41.1675Z" fill="black"/>
<path d="M20.6883 22.3655L21.3174 21.9184L20.9963 21.2166C20.7051 20.58 20.2375 20.0854 19.643 19.7867L17.6643 18.7768C18.5743 18.1954 19.2286 17.3199 19.6196 16.1626C20.258 15.7734 20.6603 15.0818 20.6603 14.3108V13.6883C20.6603 13.0564 20.3859 12.4675 19.9192 12.0596C19.586 10.2882 18.3848 8.37204 14.7486 8.37204C14.6058 8.37204 14.4658 8.37764 14.3276 8.38884C13.8395 8.42897 13.1283 8.38884 12.5198 7.98004C12.237 7.78964 12.0923 7.64217 12.0214 7.55164C11.7255 7.17551 11.229 7.04391 10.7856 7.22497C10.3432 7.40697 10.0838 7.84937 10.1379 8.32537C10.1659 8.56524 10.206 8.84524 10.2667 9.15044C10.3451 9.54244 10.3498 9.65537 10.347 9.68524C10.3395 9.71791 10.2854 9.83364 10.2424 9.92697C10.1771 10.067 10.0968 10.2396 10.0026 10.4702C9.80002 10.9639 9.65256 11.5015 9.56296 12.0746C9.10656 12.4834 8.83683 13.0667 8.83683 13.6892V14.3118C8.83683 15.0827 9.23909 15.7743 9.87749 16.1635C10.2667 17.3162 10.9182 18.1898 11.8216 18.7703L9.76456 19.7848C9.19243 20.0966 8.74629 20.594 8.47469 21.2231L8.17603 21.9147L8.78829 22.3524C10.5439 23.605 12.6038 24.2667 14.7486 24.2667C16.8859 24.2667 18.9392 23.6096 20.6883 22.3655ZM10.7483 21.3799L13.0303 20.2562C13.5147 20.0163 13.8162 19.5319 13.8162 18.9915V17.6643L13.2524 17.4207C12.4012 17.0548 11.8468 16.3464 11.5547 15.2544L11.4212 14.757L10.9294 14.6039C10.8211 14.5703 10.7054 14.4648 10.7054 14.3118V13.6892C10.7054 13.5567 10.794 13.4634 10.8771 13.4195L11.3148 13.1862L11.3662 12.6924C11.424 12.1371 11.5463 11.6284 11.7311 11.1786C11.8114 10.9816 11.8804 10.8351 11.9364 10.7147C12.0811 10.4048 12.1688 10.1752 12.2006 9.91671C12.8819 10.2014 13.6556 10.3134 14.4779 10.2508C14.5666 10.2434 14.6571 10.2396 14.7495 10.2396C17.4739 10.2396 17.9872 11.4847 18.13 12.7018L18.187 13.1899L18.6219 13.4186C18.705 13.4624 18.7946 13.5558 18.7946 13.6892V14.3118C18.7946 14.4648 18.6779 14.5703 18.5706 14.6039L18.0787 14.757L17.9452 15.2544C17.6531 16.3464 17.0978 17.0558 16.2475 17.4207L15.6838 17.6643V18.9971C15.6838 19.5291 15.9778 20.0107 16.4538 20.2543L18.7078 21.4051C16.2615 22.7202 13.1862 22.7118 10.7483 21.3799Z" fill="black"/>
</svg>
