<svg width="34" height="34" viewBox="0 0 34 34" fill="none" xmlns="http://www.w3.org/2000/svg">
<g clip-path="url(#clip0_180_13629)">
<path d="M0 17C0 12.4913 1.79107 8.1673 4.97919 4.97919C8.1673 1.79107 12.4913 0 17 0C21.5087 0 25.8327 1.79107 29.0208 4.97919C32.2089 8.1673 34 12.4913 34 17C34 21.5087 32.2089 25.8327 29.0208 29.0208C25.8327 32.2089 21.5087 34 17 34C12.4913 34 8.1673 32.2089 4.97919 29.0208C1.79107 25.8327 0 21.5087 0 17ZM15.9375 2.28863C14.5138 2.72213 13.1006 4.03113 11.9276 6.2305C11.6237 6.8 11.3411 7.4205 11.0883 8.0835C12.5864 8.41712 14.2163 8.62963 15.9375 8.69338V2.28863ZM9.02913 7.52038C9.33088 6.70438 9.67513 5.93937 10.0513 5.22962C10.4187 4.53487 10.843 3.87173 11.3199 3.247C9.51079 3.9967 7.86728 5.09574 6.48338 6.48125C7.25263 6.87225 8.10475 7.22288 9.02913 7.5225V7.52038ZM7.45662 15.9375C7.53312 13.6637 7.85612 11.5026 8.38313 9.5455C7.23286 9.17764 6.11948 8.70312 5.0575 8.12813C3.36503 10.4005 2.3605 13.111 2.16325 15.9375H7.4545H7.45662ZM10.4316 10.1129C9.93065 12.0164 9.64553 13.9702 9.58162 15.9375H15.9375V10.8184C14.0037 10.7546 12.1486 10.5103 10.4316 10.1129ZM18.0625 10.8162V15.9375H24.4163C24.3531 13.9703 24.0687 12.0165 23.5684 10.1129C21.8514 10.5103 19.9963 10.7525 18.0625 10.8184V10.8162ZM9.58375 18.0625C9.65813 20.1599 9.95775 22.1298 10.4316 23.8871C12.2401 23.4767 14.0839 23.2412 15.9375 23.1838V18.0625H9.58375ZM18.0625 18.0625V23.1816C19.9963 23.2454 21.8514 23.4897 23.5684 23.8871C24.0422 22.1298 24.3419 20.1599 24.4184 18.0625H18.0625ZM11.0883 25.9165C11.3433 26.5795 11.6237 27.2 11.9276 27.7695C13.1006 29.9689 14.5159 31.2758 15.9375 31.7114V25.3088C14.2163 25.3725 12.5864 25.585 11.0883 25.9186V25.9165ZM11.322 30.753C10.8444 30.1284 10.4193 29.4652 10.0513 28.7704C9.65987 28.0297 9.3184 27.2637 9.02913 26.4775C8.15497 26.7584 7.30384 27.1066 6.48338 27.5187C7.86728 28.9043 9.51079 30.0033 11.3199 30.753H11.322ZM8.38313 24.4545C7.83142 22.3661 7.51987 20.2216 7.4545 18.0625H2.16325C2.36038 20.889 3.36493 23.5996 5.0575 25.8719C6.05625 25.3236 7.17188 24.8476 8.38313 24.4545ZM22.6801 30.753C24.4883 30.0037 26.1311 28.9054 27.5145 27.5209C26.6947 27.1087 25.8443 26.7606 24.9709 26.4796C24.6815 27.2651 24.34 28.0304 23.9488 28.7704C23.5814 29.4652 23.1571 30.1283 22.6801 30.753ZM18.0625 25.3066V31.7114C19.4862 31.2779 20.8994 29.9689 22.0724 27.7695C22.3762 27.2 22.6589 26.5795 22.9117 25.9165C21.3172 25.5669 19.694 25.3634 18.0625 25.3088V25.3066ZM25.6169 24.4545C26.8281 24.8476 27.9438 25.3236 28.9425 25.8719C30.6351 23.5996 31.6396 20.889 31.8368 18.0625H26.5455C26.4801 20.2216 26.1686 22.3661 25.6169 24.4545ZM31.8368 15.9375C31.6396 13.111 30.6351 10.4004 28.9425 8.12813C27.9438 8.67638 26.8281 9.15238 25.6169 9.5455C26.1439 11.5005 26.4669 13.6637 26.5455 15.9375H31.8368ZM23.9488 5.22962C24.3249 5.93937 24.6691 6.70438 24.973 7.52038C25.8457 7.23933 26.6954 6.89121 27.5145 6.47913C26.1308 5.09537 24.4881 3.99781 22.6801 3.24913C23.1434 3.8505 23.5684 4.51775 23.9488 5.22962ZM22.9117 8.0835C22.6703 7.44916 22.39 6.83032 22.0724 6.2305C20.8994 4.03113 19.4862 2.72425 18.0625 2.28863V8.69125C19.7838 8.6275 21.4136 8.415 22.9117 8.08138V8.0835Z" fill="black"/>
</g>
<defs>
<clipPath id="clip0_180_13629">
<rect width="34" height="34" fill="white"/>
</clipPath>
</defs>
</svg>
