<svg width="56" height="56" viewBox="0 0 56 56" fill="none" xmlns="http://www.w3.org/2000/svg">
<path d="M41.0134 47.2881C40.8808 46.9157 40.529 46.6665 40.1333 46.6665H38.8434L38.1686 45.3159C37.8521 44.6831 36.8143 44.6831 36.4979 45.3159L35.823 46.6665H34.5332C34.129 46.6665 33.7706 46.9269 33.6456 47.3115C33.5206 47.696 33.6577 48.1179 33.9844 48.3549L35.0522 49.1305L34.6135 50.3541C34.4875 50.7059 34.5836 51.0979 34.857 51.3528C35.0325 51.5161 35.2612 51.6019 35.4917 51.6019C35.6206 51.6019 35.7484 51.5758 35.8707 51.5216L37.3687 50.8581L38.8368 51.5198C39.1766 51.6728 39.5733 51.6085 39.8486 51.3592C40.123 51.1082 40.2237 50.7189 40.1034 50.3671L39.6908 49.1594L40.7203 48.3249C41.0274 48.0768 41.1451 47.6605 41.0134 47.2881ZM37.6693 48.9512C37.5731 48.9195 37.4723 48.9027 37.3716 48.9027C37.2754 48.9027 37.1784 48.9176 37.086 48.9475C37.1233 48.7338 37.085 48.5154 36.9814 48.3305C37.085 48.2465 37.1727 48.1411 37.2353 48.0169L37.3333 47.82L37.4313 48.0169C37.5116 48.1765 37.6329 48.3054 37.7784 48.3949C37.6861 48.5639 37.647 48.7581 37.6693 48.9512Z" fill="black"/>
<path d="M42.9331 41.9998C42.9331 41.4847 42.515 41.0665 41.9998 41.0665H13.9999C13.4848 41.0665 13.0667 41.4847 13.0667 41.9998C13.0667 42.515 13.4848 42.9331 13.9999 42.9331H41.9998C42.515 42.9331 42.9331 42.515 42.9331 41.9998Z" fill="black"/>
<path d="M46.6665 28.9332V23.3332C46.6665 22.818 46.2484 22.3999 45.7332 22.3999H36.3998C35.8847 22.3999 35.4666 22.818 35.4666 23.3332V28.9332C35.4666 29.4483 35.8847 29.8665 36.3998 29.8665H45.7331C46.2484 29.8666 46.6665 29.4484 46.6665 28.9332ZM44.7998 27.9999H37.3331V24.2666H44.7998V27.9999Z" fill="black"/>
<path d="M52.4084 46.6665L55.8767 40.5961C56.0418 40.3077 56.0409 39.9521 55.8738 39.6647C55.7068 39.3772 55.3988 39.1998 55.0665 39.1998H45.7333C45.2181 39.1998 44.8 39.618 44.8 40.1331V54.1331H11.2V40.1331C11.2 39.618 10.7818 39.1998 10.2667 39.1998H0.933324C0.601045 39.1998 0.293046 39.3771 0.126031 39.6647C-0.0409842 39.9521 -0.0419686 40.3077 0.123187 40.5961L3.59145 46.6665L0.123187 52.7369C-0.0419686 53.0253 -0.0410936 53.3809 0.126031 53.6683C0.293046 53.9558 0.601154 54.1332 0.933324 54.1332H6.5333C7.04846 54.1332 7.4666 53.715 7.4666 53.1999C7.4666 52.6847 7.04846 52.2666 6.5333 52.2666H2.54146L5.47674 47.1296C5.64103 46.8422 5.64103 46.4912 5.47674 46.2037L2.54146 41.0667H9.33329V55.0667C9.33329 55.5818 9.75143 56 10.2666 56H45.7331C46.2483 56 46.6664 55.5818 46.6664 55.0667V41.0667H53.4583L50.523 46.2037C50.3587 46.4912 50.3587 46.8422 50.523 47.1296L53.4583 52.2666H49.4664C48.9513 52.2666 48.5331 52.6847 48.5331 53.1999C48.5331 53.715 48.9513 54.1332 49.4664 54.1332H55.0664C55.3987 54.1332 55.7067 53.9559 55.8737 53.6683C56.0407 53.3809 56.0417 53.0252 55.8765 52.7369L52.4084 46.6665Z" fill="black"/>
<path d="M5.6001 5.59997C5.6001 6.62941 6.43725 7.46667 7.46679 7.46667C8.49623 7.46667 9.33349 6.62952 9.33349 5.59997C9.33349 4.57054 8.49634 3.73328 7.46679 3.73328C6.43725 3.73328 5.6001 4.57054 5.6001 5.59997Z" fill="black"/>
<path d="M0.933537 11.2H51.3333C51.8485 11.2 52.2666 10.7818 52.2666 10.2667C52.2666 9.75151 51.8485 9.33337 51.3333 9.33337H1.86694V4.66669C1.86694 3.12297 3.12322 1.8667 4.66693 1.8667H51.3335C52.8772 1.8667 54.1334 3.12297 54.1334 4.66669V36.3999C54.1334 36.915 54.5516 37.3332 55.0667 37.3332C55.5819 37.3332 56 36.915 56 36.3999V4.66669C56 2.09343 53.9066 0 51.3333 0H4.66693C2.09367 0 0.000244141 2.09343 0.000244141 4.66669V10.2667C0.000244141 10.7818 0.418383 11.2 0.933537 11.2Z" fill="black"/>
<path d="M16.8 5.59997C16.8 6.62941 17.6372 7.46667 18.6667 7.46667C19.6962 7.46667 20.5334 6.62952 20.5334 5.59997C20.5334 4.57054 19.6963 3.73328 18.6667 3.73328C17.6372 3.73328 16.8 4.57054 16.8 5.59997Z" fill="black"/>
<path d="M11.2 5.59997C11.2 6.62941 12.0371 7.46667 13.0666 7.46667C14.0962 7.46667 14.9333 6.62952 14.9333 5.59997C14.9333 4.57054 14.0962 3.73328 13.0666 3.73328C12.0371 3.73328 11.2 4.57054 11.2 5.59997Z" fill="black"/>
<path d="M0.933293 37.3331C1.44845 37.3331 1.86659 36.915 1.86659 36.3999V13.9999C1.86659 13.4848 1.44845 13.0667 0.933293 13.0667C0.418139 13.0667 0 13.4848 0 13.9999V36.3999C0 36.915 0.418139 37.3331 0.933293 37.3331Z" fill="black"/>
<path d="M31.68 47.2881C31.5475 46.9157 31.1956 46.6665 30.7999 46.6665H29.51L28.8352 45.3159C28.5188 44.6831 27.4809 44.6831 27.1645 45.3159L26.4897 46.6665H25.1999C24.7958 46.6665 24.4374 46.9269 24.3123 47.3115C24.1873 47.696 24.3245 48.1179 24.6512 48.3549L25.7189 49.1305L25.2802 50.3541C25.1542 50.7059 25.2503 51.0979 25.5238 51.3528C25.6992 51.5161 25.9279 51.6019 26.1585 51.6019C26.2873 51.6019 26.4152 51.5758 26.5375 51.5216L28.0355 50.8581L29.5036 51.5198C29.8424 51.6728 30.24 51.6085 30.5153 51.3592C30.7897 51.1082 30.8905 50.7189 30.7702 50.3671L30.3576 49.1594L31.387 48.3249C31.694 48.0768 31.8116 47.6605 31.68 47.2881ZM28.3359 48.9512C28.2398 48.9195 28.1389 48.9027 28.0382 48.9027C27.9421 48.9027 27.845 48.9176 27.7526 48.9475C27.7899 48.7338 27.7516 48.5154 27.6481 48.3305C27.7516 48.2465 27.8393 48.1411 27.9019 48.0169L27.9999 47.82L28.0979 48.0169C28.1782 48.1765 28.2995 48.3054 28.4451 48.3949C28.3528 48.5639 28.3135 48.7581 28.3359 48.9512Z" fill="black"/>
<path d="M42.0001 16.7999C42.5152 16.7999 42.9334 16.3818 42.9334 15.8666C42.9334 15.3515 42.5152 14.9333 42.0001 14.9333H38.2668C37.7516 14.9333 37.3335 15.3515 37.3335 15.8666C37.3335 16.3818 37.7516 16.7999 38.2668 16.7999H42.0001Z" fill="black"/>
<path d="M22.4001 23.3332V28.9332C22.4001 29.4483 22.8183 29.8665 23.3334 29.8665H32.6667C33.1819 29.8665 33.6 29.4483 33.6 28.9332V23.3332C33.6 22.818 33.1819 22.3999 32.6667 22.3999H23.3334C22.8183 22.3999 22.4001 22.818 22.4001 23.3332ZM24.2668 24.2666H31.7335V27.9999H24.2668V24.2666Z" fill="black"/>
<path d="M34.5333 16.7999C35.0484 16.7999 35.4666 16.3818 35.4666 15.8666C35.4666 15.3515 35.0484 14.9333 34.5333 14.9333H30.8C30.2848 14.9333 29.8667 15.3515 29.8667 15.8666C29.8667 16.3818 30.2848 16.7999 30.8 16.7999H34.5333Z" fill="black"/>
<path d="M45.7332 32.6666C45.7332 32.1514 45.315 31.7333 44.7999 31.7333H37.3332C36.818 31.7333 36.3999 32.1514 36.3999 32.6666C36.3999 33.1817 36.818 33.5999 37.3332 33.5999H44.7999C45.315 33.5999 45.7332 33.1817 45.7332 32.6666Z" fill="black"/>
<path d="M24.2668 31.7332C23.7516 31.7332 23.3335 32.1513 23.3335 32.6664C23.3335 33.1816 23.7516 33.5997 24.2668 33.5997H31.7335C32.2486 33.5997 32.6668 33.1816 32.6668 32.6664C32.6668 32.1513 32.2486 31.7332 31.7335 31.7332H24.2668Z" fill="black"/>
<path d="M10.2668 29.8666H19.6C20.1152 29.8666 20.5333 29.4485 20.5333 28.9333V23.3333C20.5333 22.8182 20.1152 22.4 19.6 22.4H10.2668C9.75163 22.4 9.3335 22.8182 9.3335 23.3333V28.9333C9.33339 29.4485 9.75153 29.8666 10.2668 29.8666ZM11.2001 24.2666H18.6668V27.9999H11.2001V24.2666Z" fill="black"/>
<path d="M22.3469 47.2881C22.2143 46.9157 21.8625 46.6665 21.4668 46.6665H20.1769L19.5021 45.3159C19.1856 44.6831 18.1478 44.6831 17.8314 45.3159L17.1565 46.6665H15.8667C15.4625 46.6665 15.1041 46.9269 14.9791 47.3115C14.8541 47.696 14.9912 48.1179 15.3179 48.3549L16.3857 49.1305L15.947 50.3541C15.821 50.7059 15.9171 51.0979 16.1905 51.3528C16.366 51.5161 16.5947 51.6019 16.8252 51.6019C16.9541 51.6019 17.0819 51.5758 17.2042 51.5216L18.7022 50.8581L20.1703 51.5198C20.5092 51.6728 20.9058 51.6085 21.1821 51.3592C21.4565 51.1082 21.5572 50.7189 21.4369 50.3671L21.0243 49.1594L22.0538 48.3249C22.3609 48.0768 22.4785 47.6605 22.3469 47.2881ZM19.0028 48.9512C18.9066 48.9195 18.8058 48.9027 18.705 48.9027C18.6089 48.9027 18.5119 48.9176 18.4195 48.9475C18.4568 48.7338 18.4185 48.5154 18.3149 48.3305C18.4185 48.2465 18.5062 48.1411 18.5688 48.0169L18.6668 47.82L18.7648 48.0169C18.845 48.1765 18.9663 48.3054 19.1119 48.3949C19.0195 48.5639 18.9803 48.7581 19.0028 48.9512Z" fill="black"/>
<path d="M11.2001 33.5999H18.6668C19.182 33.5999 19.6001 33.1817 19.6001 32.6666C19.6001 32.1514 19.182 31.7333 18.6668 31.7333H11.2001C10.685 31.7333 10.2668 32.1514 10.2668 32.6666C10.2668 33.1817 10.685 33.5999 11.2001 33.5999Z" fill="black"/>
<path d="M50.3999 15.8666C50.3999 15.3515 49.9818 14.9333 49.4666 14.9333H45.7333C45.2182 14.9333 44.8 15.3515 44.8 15.8666C44.8 16.3818 45.2182 16.7999 45.7333 16.7999H49.4666C49.9818 16.7999 50.3999 16.3818 50.3999 15.8666Z" fill="black"/>
<path d="M14.9334 15.8666C14.9334 15.3515 14.5152 14.9333 14.0001 14.9333H6.53339C6.01824 14.9333 5.6001 15.3515 5.6001 15.8666C5.6001 16.3818 6.01824 16.7999 6.53339 16.7999H14.0001C14.5152 16.7999 14.9334 16.3818 14.9334 15.8666Z" fill="black"/>
</svg>
